# xmcd CD database file
#
# Track frame offsets:
#	150
#	30096
#	51067
#	71023
#	104023
#
# Disc length: 1608 seconds
#
# Revision: 0
# Processed by: cddbd v1.5.2PL0 Copyright (c) Steve Scherf et al.
# Submitted via: CDex 1.70beta2
#
DISCID=3a064605
DTITLE=compilation - piano: la nouvelle vague 2009
DYEAR=2008
DGENRE=Jazz
TTITLE0=Yaron Herman - Lamidbar
TTITLE1=Eric Lignini - Trippin'
TTITLE2=Franck Avitabile - Three colours
TTITLE3=Alexandre Saada - Panic circus
TTITLE4=Giovanni Mirabassi - Pieranunzi
EXTD=YEAR: 2008
EXTT0=
EXTT1=
EXTT2=
EXTT3=
EXTT4=
PLAYORDER=
